<svg id="Layer_1" data-name="Layer 1" xmlns="http://www.w3.org/2000/svg" viewBox="0 0 292.22 29.71"><defs><style>.cls-1{fill:#f89f23;}</style></defs><title>Artboard 1</title><path class="cls-1" d="M41.25,26.44H37.79v-20l-14.85,20H18.27L3.42,6.47v20H0V4H5.66l15,20.32L35.71,4h5.54Z"/><path class="cls-1" d="M48.1,26.44V22.57h4.06v3.87Z"/><path class="cls-1" d="M100.73,22.86c-1.82,1.82-5.5,3.58-13.31,3.58H71.81V4H87.42c7.81,0,11.49,1.76,13.31,3.58a10.27,10.27,0,0,1,2.91,7.62A10.27,10.27,0,0,1,100.73,22.86Zm-13.37.7c6.08,0,9.25-1.15,10.72-2.62a7.46,7.46,0,0,0,2.08-5.7,7.46,7.46,0,0,0-2.08-5.7c-1.47-1.47-4.64-2.62-10.72-2.62H75.26V23.56Z"/><path class="cls-1" d="M135.17,21.45A7,7,0,0,0,137,16.14V4h3.46V16.55a9,9,0,0,1-2.56,6.88c-2,2-5.63,3.52-13.21,3.52s-11.23-1.54-13.18-3.52a9,9,0,0,1-2.56-6.88V4h3.46V16.14a7,7,0,0,0,1.82,5.31c1.54,1.54,4.61,2.66,10.46,2.66S133.63,23,135.17,21.45Z"/><path class="cls-1" d="M175.77,23.43V4h3.46v22.4h-4.86L150.81,6.86V26.44h-3.42V4h5.06Z"/><path class="cls-1" d="M188.16,23a10.67,10.67,0,0,1-2.91-7.74,10.68,10.68,0,0,1,2.91-7.74c2.11-2.11,6.3-4,14.27-4a32.34,32.34,0,0,1,14,2.78v3.3a30.07,30.07,0,0,0-13.92-3.23c-5.15,0-9.54.9-11.65,3a7.93,7.93,0,0,0-2.08,5.86,7.9,7.9,0,0,0,2.08,5.82c2.11,2.11,6.5,3,11.62,3a31.5,31.5,0,0,0,14-3.07v3.14a32.34,32.34,0,0,1-14,2.78C194.46,27,190.27,25.1,188.16,23Z"/><path class="cls-1" d="M240,3.91l16.16,22.53h-4l-4-5.63H226.94l-4,5.63h-3.84L235.29,3.91ZM229,18h17.15l-8.54-12.1Z"/><path class="cls-1" d="M288.77,23.43V4h3.46v22.4h-4.86L263.81,6.86V26.44h-3.42V4h5.06Z"/></svg>