<?xml version="1.0" encoding="utf-8"?>
<!-- Generator: Adobe Illustrator 21.0.0, SVG Export Plug-In . SVG Version: 6.00 Build 0)  -->
<svg version="1.1" id="Layer_1" xmlns="http://www.w3.org/2000/svg" xmlns:xlink="http://www.w3.org/1999/xlink" x="0px" y="0px"
	 viewBox="0 0 126.2 19.5" enable-background="new 0 0 126.2 19.5" xml:space="preserve">
<polygon fill="#353535" points="11.2,1.7 6.9,7.8 2.6,1.7 0,1.7 0,8.8 1.6,8.8 1.6,2.9 5.8,8.8 7.9,8.8 12.1,2.9 12.1,8.8 13.7,8.8 
	13.7,1.7 "/>
<rect x="16.1" y="7.2" fill="#353535" width="1.7" height="1.6"/>
<g>
	<path fill="#353535" d="M25.5,7.5c1.7,0,2.6-0.3,3-0.7C28.9,6.4,29,6,29,5.3c0-0.7-0.2-1.2-0.6-1.6c-0.4-0.4-1.3-0.7-3-0.7h-3.6
		v4.5H25.5z M29.7,7.7c-0.6,0.6-1.7,1.1-4.2,1.1h-5.3v-7h5.3c2.5,0,3.6,0.6,4.2,1.1c0.7,0.6,0.9,1.4,0.9,2.4S30.4,7,29.7,7.7"/>
	<path fill="#353535" d="M40.4,7c0.4-0.3,0.5-0.8,0.5-1.4V1.7h1.6v3.9c0,1-0.3,1.6-0.8,2.1c-0.7,0.6-1.9,1.1-4.3,1.1
		c-2.4,0-3.7-0.5-4.3-1.1c-0.5-0.5-0.8-1.2-0.8-2.1V1.7h1.6v3.8c0,0.7,0.2,1.1,0.5,1.4c0.4,0.4,1.4,0.7,3.1,0.7S40,7.4,40.4,7"/>
</g>
<polygon fill="#353535" points="53.3,1.7 53.3,7.4 46.8,1.7 44.5,1.7 44.5,8.8 46.1,8.8 46.1,3 52.7,8.8 54.9,8.8 54.9,1.7 "/>
<g>
	<path fill="#353535" d="M57.6,7.7c-0.6-0.6-0.9-1.5-0.9-2.4s0.3-1.8,0.9-2.4c0.7-0.7,2.1-1.2,4.6-1.2c2,0,3.5,0.4,4.4,0.9v1.4
		c-1-0.6-2.7-1.1-4.4-1.1c-1.8,0-2.9,0.4-3.4,0.8c-0.4,0.4-0.6,0.9-0.6,1.6c0,0.7,0.2,1.2,0.6,1.6c0.5,0.5,1.6,0.8,3.3,0.8
		c1.8,0,3.4-0.4,4.4-1V8c-0.9,0.5-2.4,0.9-4.4,0.9C59.6,8.9,58.3,8.3,57.6,7.7"/>
</g>
<path fill="#353535" d="M73.4,2.6l2.3,3.3h-4.6L73.4,2.6z M72.3,1.7l-5,7.1h1.8l1.2-1.7h6.3l1.2,1.7h1.8l-5-7.1H72.3z"/>
<polygon fill="#353535" points="89.4,1.7 89.4,7.4 82.9,1.7 80.6,1.7 80.6,8.8 82.2,8.8 82.2,3 88.8,8.8 91,8.8 91,1.7 "/>
<g>
	<path fill="#353535" d="M2.6,17.7c0.9,0,1.4-0.2,1.6-0.4c0.2-0.2,0.3-0.5,0.3-0.9c0-0.4-0.1-0.7-0.3-0.9c-0.2-0.2-0.7-0.4-1.6-0.4
		H0.8v2.5H2.6z M4.7,17.6c-0.3,0.3-0.8,0.5-2,0.5H0.2v-3.3h2.4c1.2,0,1.8,0.3,2,0.5C5,15.7,5.1,16,5.1,16.5
		C5.1,16.9,5,17.3,4.7,17.6"/>
</g>
<polygon fill="#353535" points="7.3,14.8 7.3,18.2 11.7,18.2 11.7,17.7 7.8,17.7 7.8,16.7 11.6,16.7 11.6,16.3 7.8,16.3 7.8,15.2 
	11.7,15.2 11.7,14.8 "/>
<g>
	<path fill="#353535" d="M17.7,17.6c0.1-0.1,0.1-0.2,0.1-0.3c0-0.1,0-0.2-0.1-0.3c-0.1-0.1-0.4-0.2-1.7-0.3c-1.4-0.1-1.8-0.2-2-0.4
		c-0.1-0.1-0.2-0.3-0.2-0.5c0-0.2,0.1-0.4,0.2-0.6c0.2-0.2,0.7-0.4,1.9-0.4c0.9,0,1.7,0.1,2.1,0.3v0.5c-0.5-0.2-1.4-0.4-2.1-0.4
		c-1,0-1.3,0.1-1.5,0.3c-0.1,0.1-0.1,0.2-0.1,0.3c0,0.1,0,0.2,0.1,0.3c0.1,0.1,0.4,0.2,1.7,0.3c1.5,0.1,1.8,0.2,2.1,0.4
		c0.1,0.1,0.2,0.3,0.2,0.6c0,0.2-0.1,0.4-0.2,0.6c-0.2,0.2-0.7,0.4-2,0.4c-1,0-1.9-0.2-2.4-0.4v-0.5c0.5,0.2,1.6,0.4,2.4,0.4
		C17.2,17.8,17.5,17.7,17.7,17.6"/>
</g>
<rect x="20.6" y="14.8" fill="#353535" width="0.5" height="3.3"/>
<g>
	<path fill="#353535" d="M28.5,16.4v0.3c0,0.4-0.1,0.8-0.4,1c-0.3,0.3-1,0.5-2.1,0.5c-1.4,0-1.9-0.3-2.3-0.6
		c-0.3-0.3-0.4-0.7-0.4-1.2c0-0.5,0.1-0.9,0.4-1.2c0.3-0.3,0.9-0.6,2.2-0.6c1,0,1.8,0.2,2.3,0.4v0.5c-0.5-0.3-1.3-0.4-2.3-0.4
		c-1,0-1.5,0.2-1.8,0.4c-0.2,0.2-0.3,0.5-0.3,0.9c0,0.4,0.1,0.7,0.3,0.9c0.3,0.2,0.7,0.5,1.8,0.5c0.9,0,1.5-0.1,1.7-0.4
		c0.2-0.2,0.2-0.4,0.2-0.6h-2.3v-0.4H28.5z"/>
</g>
<polygon fill="#353535" points="35.1,14.8 35.1,17.7 31.5,14.8 30.7,14.8 30.7,18.2 31.2,18.2 31.2,15.2 34.8,18.2 35.6,18.2 
	35.6,14.8 "/>
</svg>
